<?xml version="1.0" encoding="UTF-8"?><svg id="layer_2" xmlns="http://www.w3.org/2000/svg" viewBox="0 0 64 64"><path d="M29.96,31.65v2.73c0,1.12,.92,2.04,2.04,2.04,.64,0,1.22-.29,1.61-.79,.17-.22,.13-.53-.09-.7-.22-.17-.53-.13-.7,.09-.2,.26-.5,.4-.82,.4-.57,0-1.04-.47-1.04-1.04v-2.73c0-1.63-1.11-3.04-2.64-3.34-1.69-.33-3.33,.65-3.82,2.29-.08,.26,.07,.54,.34,.62,.27,.08,.54-.07,.62-.34,.34-1.14,1.48-1.82,2.67-1.59,1.06,.21,1.83,1.2,1.83,2.36Z"/><path d="M33.54,32.03c.28,0,.5-.22,.5-.5,0-1.26,1.03-2.29,2.3-2.29,1.01,0,1.91,.67,2.2,1.64,.08,.26,.36,.42,.62,.34,.26-.08,.42-.36,.34-.62-.41-1.38-1.71-2.35-3.16-2.35-1.82,0-3.3,1.48-3.3,3.29,0,.28,.22,.5,.5,.5Z"/><path d="M32,40.62c1.35,0,2.55-.81,3.05-2.05,.1-.26-.02-.55-.28-.65-.25-.1-.55,.02-.65,.28-.34,.85-1.2,1.43-2.12,1.43s-1.78-.57-2.12-1.43c-.1-.26-.4-.38-.65-.28-.26,.1-.38,.39-.28,.65,.5,1.25,1.7,2.05,3.05,2.05Z"/><path d="M49.55,57.22c-.26-2.02-1.17-3.86-2.62-5.32-1.74-1.74-4.05-2.7-6.5-2.7h-3.21c-.15,0-.29,.02-.43,.04v-4.12c.44-.2,.87-.42,1.29-.68,2.25-1.41,4.86-4.07,5.74-9.01,0,0,0,0,.01,0,2.27,0,4.11-1.84,4.11-4.11s-1.69-3.91-3.81-4.07v-.02s0,0,0,0c0,0,0-.01,0-.02v-4.9c.01-.24,.22-5.92-3.43-9.73-.53-.55-1.11-1.04-1.75-1.45-.18-3.35-3.23-6.04-6.95-6.04s-6.77,2.68-6.95,6.04c-.05,.04-.1,.08-.16,.11,0,0-.01,0-.01,0-.03,.02-.33,.2-.67,.5-.32,.26-.62,.53-.91,.83-3.65,3.82-3.44,9.49-3.43,9.71v4.97c-2.13,.16-3.81,1.91-3.81,4.07,0,2.27,1.84,4.11,4.11,4.11,0,0,0,0,.01,0,.88,4.94,3.49,7.6,5.74,9.01,.42,.26,.85,.48,1.29,.68v4.12c-.14-.02-.29-.04-.43-.04h-3.21c-4.61,0-8.53,3.44-9.12,8.01-.05,.42,.08,.85,.36,1.17,.29,.33,.7,.51,1.14,.51H48.06c.43,0,.85-.19,1.13-.51,.28-.32,.42-.75,.36-1.17Zm-10.29-7.01l-5.26,5.53-1.32-1.42,3.34-3.59c.31-.33,.75-.52,1.2-.52h2.04ZM20.86,25.95v-1.9s0,0,0,0c0-3.45,4.3-6.32,5.33-6.96,1.05,.54,2.37,1.05,3.99,1.54,.1,.03,.19,.07,.3,.1-5.64,2.2-8.37,4.88-9.62,7.23Zm11.36-7.71s-.01,0-.02,0c-.55-.19-1.12-.38-1.72-.56-5.28-1.61-6.21-3.07-6.29-3.8-.06-.56,.31-1.03,.66-1.35,.32-.26,.67-.5,1.03-.71,.35-.21,.72-.4,1.11-.57,.08-.03,.16-.07,.24-.1,.4-.16,.82-.3,1.25-.41,.34,.99,1.88,2.71,7.62,5.05,5.58,2.27,6.86,4.65,7.01,10.13-1.36-2.52-4.4-5.39-10.89-7.66Zm14.72,13.09c0,1.65-1.3,3.01-2.92,3.11,.08-.7,.11-1.45,.11-2.28v-2.34s0-.01,0-.02c0-.07,0-.14,0-.21v-1.35c1.58,.15,2.81,1.48,2.81,3.09Zm-3.99-11.44c-1.06-2.13-3-3.63-6.48-5.05-5.46-2.22-6.7-3.73-6.99-4.33,.18-.03,.36-.07,.55-.1,.13-.02,.25-.03,.38-.05,.51-.05,1.03-.09,1.58-.09s1.07,.04,1.58,.09c.13,.01,.26,.03,.38,.05,.45,.06,.89,.14,1.31,.24,.05,.01,.1,.02,.15,.03,.47,.12,.92,.27,1.35,.45,.08,.03,.16,.07,.24,.1,.39,.17,.76,.36,1.12,.57,.68,.41,1.3,.89,1.85,1.46,1.95,2.03,2.7,4.71,2.98,6.63ZM26.12,10.52c.49-2.51,2.94-4.43,5.88-4.43s5.4,1.92,5.88,4.43c-.39-.19-.79-.35-1.21-.5-.1-.03-.2-.06-.3-.1-.33-.11-.66-.2-1.01-.28-.13-.03-.26-.06-.4-.09-.34-.07-.69-.12-1.05-.16-.13-.02-.26-.04-.4-.05-.49-.04-.99-.07-1.51-.07s-1.02,.03-1.51,.07c-.14,.01-.27,.03-.4,.05-.36,.04-.71,.09-1.05,.16-.13,.03-.27,.06-.4,.09-.35,.08-.68,.17-1.01,.28-.1,.03-.2,.06-.3,.1-.42,.15-.82,.31-1.2,.5,0,0,0,0,0,0Zm-2.86,3.68c.18,.82,.82,1.6,1.96,2.32-1.06,.7-3.04,2.19-4.27,4.15,.17-1.65,.7-4.28,2.31-6.47Zm-3.28,20.24c-1.63-.1-2.92-1.45-2.92-3.11s1.24-2.94,2.81-3.09v1.46s0,.06,0,.09c0,0,0,.01,0,.02v2.35c0,.82,.04,1.57,.11,2.28Zm.89-2.7v-2.03c.03-2.51,1.57-7.11,11.13-10.49,9.52,3.36,11.1,7.91,11.14,10.48v2.03c0,5.56-1.88,9.55-5.58,11.86-.79,.49-1.63,.86-2.51,1.12-.2,.06-.41,.11-.61,.15-.2,.05-.41,.09-.61,.13-.22,.04-.44,.07-.66,.1-.2,.02-.41,.03-.61,.04-.37,.02-.74,.02-1.11,0-.2-.01-.41-.02-.61-.04-.22-.02-.44-.06-.66-.1-.2-.04-.41-.08-.61-.13-.21-.05-.41-.09-.61-.15-.87-.26-1.72-.63-2.51-1.12-3.7-2.31-5.58-6.3-5.58-11.86Zm7.34,13.8c.12,.04,.23,.07,.35,.11,.16,.05,.32,.1,.49,.15,.38,.1,.76,.18,1.15,.24,.18,.03,.36,.05,.54,.07,.31,.03,.62,.05,.93,.06,.11,0,.22,.02,.33,.02s.22-.02,.33-.02c.31,0,.62-.03,.93-.06,.18-.02,.36-.04,.53-.07,.39-.06,.77-.14,1.15-.24,.16-.04,.32-.09,.48-.14,.12-.04,.24-.07,.35-.11v4.11c-.18,.12-.35,.25-.5,.41l-3.29,3.53-3.29-3.53c-.15-.16-.32-.29-.5-.41v-4.11Zm-.23,5.2l3.65,3.92s0,0,0,0l3.03,3.25h-2.61l-7.32-7.7h2.04c.45,0,.89,.19,1.2,.52Zm-12.42,7c-.1-.11-.14-.24-.12-.38,.52-4,3.91-7.03,7.93-7.13l7.31,7.69H15.94c-.15,0-.29-.06-.38-.17Zm32.88,0c-.1,.11-.24,.17-.38,.17h-12.03l-.37-.4-.97-1.04,5.94-6.25c2.11,.05,4.09,.89,5.59,2.39,1.3,1.3,2.1,2.93,2.34,4.74,.02,.14-.02,.28-.12,.38Z"/><path d="M15.97,45.31c1.37,0,2.49,1.2,2.49,2.67,0,.28,.22,.5,.5,.5s.5-.22,.5-.5c0-1.47,1.12-2.67,2.5-2.67,.28,0,.5-.22,.5-.5s-.22-.5-.5-.5c-1.38,0-2.5-1.21-2.5-2.69,0-.28-.22-.5-.5-.5s-.5,.22-.5,.5c0,1.48-1.12,2.69-2.49,2.69-.28,0-.5,.22-.5,.5s.22,.5,.5,.5Zm2.99-1.79c.3,.53,.73,.98,1.24,1.29-.51,.31-.94,.75-1.24,1.28-.3-.53-.73-.97-1.23-1.28,.51-.31,.93-.76,1.23-1.29Z"/><path d="M45.53,41.62c0-.28-.22-.5-.5-.5s-.5,.22-.5,.5c0,1.48-1.12,2.69-2.49,2.69-.28,0-.5,.22-.5,.5s.22,.5,.5,.5c1.37,0,2.49,1.2,2.49,2.67,0,.28,.22,.5,.5,.5s.5-.22,.5-.5c0-1.47,1.12-2.67,2.5-2.67,.28,0,.5-.22,.5-.5s-.22-.5-.5-.5c-1.38,0-2.5-1.21-2.5-2.69Zm-.5,4.47c-.3-.53-.73-.97-1.23-1.28,.51-.31,.93-.76,1.23-1.29,.3,.53,.73,.98,1.24,1.29-.51,.31-.94,.75-1.24,1.28Z"/></svg>